# xmcd
#
# Track frame offsets: 
#        150
#        15986
#        35414
#        58912
#        73394
#        89301
#        101935
#        122189
#        138397
#        160709
#        182122
#        195229
#
# Disc length: 2849 seconds
#
# Revision: 0
# Processed by: cddbd v1.5.2PL0 Copyright (c) Steve Scherf et al.
# Submitted via: ExactAudioCopy v1.3
#
DISCID=a60b1f0c
DTITLE=Big Harp George - Chromaticism
DYEAR=2014
DGENRE=Blues
TTITLE0=Smack Dab In The Middle
TTITLE1=Crazy About You Baby
TTITLE2=Left So Soon
TTITLE3=My Baby Is Now On My Mind
TTITLE4=Chromaticism
TTITLE5=Hard Way
TTITLE6=Cellphone Hater
TTITLE7=Strolling Down Bliss Street
TTITLE8=Cocktail Hour
TTITLE9=Someday
TTITLE10=Hey Jaleh
TTITLE11=Drum Boogie
EXTD=
EXTT0=
EXTT1=
EXTT2=
EXTT3=
EXTT4=
EXTT5=
EXTT6=
EXTT7=
EXTT8=
EXTT9=
EXTT10=
EXTT11=
PLAYORDER=
